Coordinates
version=1
nRows=17
nColumns=36
inDegrees=yes

Units are S.I. units (second, meters, Newtons, ...)
If the header above contains a line with 'inDegrees', this indicates whether rotational values are in degrees (yes) or radians (no).

endheader
time	pelvis_tilt	pelvis_list	pelvis_rotation	pelvis_tx	pelvis_ty	pelvis_tz	hip_flexion_r	hip_adduction_r	hip_rotation_r	knee_angle_r	knee_angle_r_beta	ankle_angle_r	subtalar_angle_r	mtp_angle_r	hip_flexion_l	hip_adduction_l	hip_rotation_l	knee_angle_l	knee_angle_l_beta	ankle_angle_l	subtalar_angle_l	mtp_angle_l	lumbar_extension	lumbar_bending	lumbar_rotation	arm_flex_r	arm_add_r	arm_rot_r	elbow_flex_r	pro_sup_r	arm_flex_l	arm_add_l	arm_rot_l	elbow_flex_l	pro_sup_l
      3.90000000	     -8.93998447	     20.87291775	      4.85670932	      1.59556616	      0.82630250	      0.01909564	     84.95341733	    -25.67706412	     16.36581833	     33.88940609	      0.59148172	     -8.83685395	     11.12440123	     -7.49999987	     56.62797928	     20.77175457	    -16.36605013	     68.10883123	      1.18872335	     22.87487035	      4.20644233	     -7.49999987	    -42.75589968	    -19.96725113	    -21.87584774	     95.39038666	     -2.55000213	     66.31344002	    125.57473782	     94.68992965	    119.03457198	     -6.97786165	     71.39573643	    131.20043083	     86.44264658
      3.91666670	     -9.63193109	     21.34635995	      5.25057528	      1.59589620	      0.82233622	      0.01850833	     86.06606012	    -26.07546991	     16.80214329	     33.97212093	      0.59292536	     -8.86971412	     11.49710979	     -7.49999987	     57.90064334	     21.26188555	    -16.71650282	     68.60793484	      1.19743436	     22.79088877	      3.93827499	     -7.49999987	    -43.02517187	    -20.07828419	    -21.98682680	     96.23641390	     -2.36334029	     66.76900691	    125.87155913	     93.22617636	    119.11175221	     -6.75377027	     69.96446265	    131.05389329	     84.96466303
      3.93333330	    -10.32468325	     21.88624270	      5.60051065	      1.59568632	      0.82442256	      0.01884471	     86.98254632	    -26.46480493	     17.05817604	     33.74562907	      0.58897234	     -9.16835846	     12.14507880	     -7.49999987	     58.96213860	     21.90972984	    -17.03776399	     68.66405324	      1.19841381	     22.62625472	      3.51955149	     -7.49999987	    -43.38951756	    -20.27359588	    -21.95954664	     96.31591161	     -2.72830393	     68.44305854	    124.93768977	     91.54336584	    118.83739744	     -6.88502707	     71.38368156	    130.28270098	     83.78437919
      3.95000000	    -11.15434729	     22.16814144	      6.09761768	      1.59138273	      0.81989421	      0.02034438	     87.83982872	    -26.76750058	     17.11174319	     33.55661524	      0.58567342	     -9.60598795	     12.64569972	     -7.49999987	     60.07591027	     22.33181924	    -17.25806628	     68.67377820	      1.19858354	     22.79546323	      3.28110719	     -7.49999987	    -43.73726143	    -20.16991038	    -21.94902628	     97.01609113	     -2.94398110	     68.22104561	    125.15837341	     91.62151111	    119.20962709	     -6.77504249	     71.24982773	    130.23615309	     83.93684416
      3.96666670	    -12.04695816	     22.43910786	      6.65802355	      1.59157076	      0.81640481	      0.01968170	     88.79320399	    -27.05528551	     17.29189898	     33.52162113	      0.58506266	     -9.67207112	     13.36427534	     -7.49999987	     61.32872029	     22.84036880	    -17.35096359	     68.68766718	      1.19882595	     22.77670961	      2.81316239	     -7.49999987	    -43.80471488	    -20.25260914	    -21.86584756	     96.98459980	     -2.98282316	     68.81365021	    125.82624935	     89.60350236	    118.54188059	     -6.13220491	     70.90647716	    130.20244532	     82.37528809
      3.98333330	    -12.74835863	     22.63237026	      7.24057717	      1.58763572	      0.81452513	      0.02160348	     89.55820276	    -27.34345099	     17.53598637	     33.66043439	      0.58748541	     -9.62440114	     14.10399060	     -7.49999987	     62.42430729	     23.36790061	    -17.25890511	     68.74694250	      1.19986050	     22.80305597	      2.11838631	     -7.49999987	    -43.93460780	    -20.27366284	    -21.85791057	     96.82342811	     -3.19512909	     68.89542785	    126.60149486	     90.08935884	    118.52009609	     -5.50806882	     70.43417974	    129.12025309	     83.12675551
      4.00000000	    -13.17248838	     22.53860820	      7.61122702	      1.58705036	      0.81457772	      0.02202266	     89.75757306	    -27.55181028	     17.38769548	     33.57277080	      0.58595539	     -9.65570869	     14.78014097	     -7.49999987	     63.14218288	     23.74606883	    -16.84768294	     68.80287512	      1.20083671	     23.04383435	      1.84093072	     -7.49999987	    -44.14730803	    -19.89912946	    -21.79323853	     96.87982126	     -2.96637646	     68.84901051	    126.44612768	     88.38731218	    118.56155562	     -5.47986030	     69.19401666	    128.48973907	     81.86723128
      4.01666670	    -13.32268368	     22.61101450	      7.90564776	      1.58738622	      0.81400033	      0.02187485	     89.66462310	    -27.84368426	     17.35018414	     33.45053381	      0.58382195	     -9.53812413	     15.44407018	     -7.49999987	     63.38889846	     24.21958521	    -16.56868258	     68.66907673	      1.19850148	     23.11677519	      1.21624626	     -7.49999987	    -44.66140036	    -19.63499284	    -21.70687437	     97.03042155	     -3.74220035	     68.81135915	    126.78296285	     92.61475771	    118.74828868	     -5.46324301	     67.66826067	    127.58830638	     91.74524130
      4.03333330	    -13.63683200	     22.57570382	      8.27244640	      1.58244331	      0.80839527	      0.02398988	     89.91911300	    -27.96338267	     17.52759499	     33.63048268	      0.58696265	     -9.32073590	     15.66753961	     -7.49999987	     64.02799237	     24.43514355	    -16.38611855	     68.89711701	      1.20248154	     23.48058812	      0.89426829	     -7.49999987	    -44.97773821	    -19.37879859	    -21.83681188	     97.27039271	     -3.72550084	     69.31627292	    125.90796241	     89.09914889	    119.29814639	     -5.80808647	     67.87587162	    126.67552445	     88.63248918
      4.05000000	    -14.11111082	     22.35404880	      8.63803227	      1.58289726	      0.80435079	      0.02329887	     90.40240992	    -27.93692700	     17.63725109	     34.02290259	      0.59381167	     -9.03010429	     15.56629615	     -7.49999987	     64.91799485	     24.39071530	    -16.24693940	     69.43561048	      1.21188002	     24.04664060	      0.92068049	     -7.49999987	    -44.97380629	    -18.94106394	    -21.70659171	     97.52007741	     -4.05394524	     69.15420715	    126.83043826	     87.23952218	    119.03132916	     -5.66785594	     67.28267123	    126.07786826	     86.83281904
      4.06666670	    -14.44781164	     22.32868824	      9.01493839	      1.57795521	      0.80366862	      0.02563839	     90.91489184	    -27.94898409	     17.98441594	     34.47811237	      0.60175658	     -8.80472708	     15.34476069	     -7.49999987	     65.73872419	     24.37176254	    -16.29959121	     69.93467154	      1.22059028	     24.31014733	      0.64954489	     -7.49999987	    -45.29586679	    -18.98964262	    -21.40924903	     97.62750113	     -4.94871735	     66.98826788	    128.35687629	     88.43801043	    119.22701134	     -3.39605030	     67.81424130	    126.13084087	     88.31685917
      4.08333330	    -14.80209113	     22.13963300	      9.38391775	      1.57776180	      0.80059619	      0.02566533	     91.36276489	    -28.00380838	     18.07459248	     34.85634397	      0.60835797	     -8.56989779	     15.25443466	     -7.49999987	     66.49101086	     24.17954770	    -16.27275036	     70.48101162	      1.23012571	     24.66340945	      0.70069969	     -7.49999987	    -45.33572945	    -18.61068979	    -21.39260758	     97.75642603	     -5.53563297	     67.43579655	    129.06629043	     91.39263513	    119.37843245	     -2.65280192	     67.88210934	    125.90706319	     94.61621262
      4.10000000	    -15.01681402	     21.97619250	      9.62882135	      1.57386524	      0.79995266	      0.02208108	     91.75601180	    -28.08301737	     18.12350356	     35.22215141	      0.61474251	     -8.49552233	     15.17609461	     -7.49999987	     67.20004981	     23.93230402	    -16.28548278	     70.98644441	      1.23894718	     24.67161506	      0.79121904	     -7.49999987	    -45.60882432	    -18.04794809	    -21.79953149	     98.10797243	     -6.03742839	     67.80797345	    128.57400051	     91.31021571	    120.25352126	     -2.93752758	     68.17645977	    124.69425914	     94.57235191
      4.11666670	    -15.35910255	     21.80984573	      9.86226045	      1.57297292	      0.79674208	      0.02824311	     92.34120767	    -28.02949586	     18.32890612	     35.65500165	      0.62229717	     -8.49837560	     15.03510965	     -7.49999987	     68.01367047	     23.45488197	    -16.42523647	     71.47971835	      1.24755643	     24.72126101	      1.01071650	     -7.49999987	    -45.57821965	    -17.89748400	    -21.90022630	     98.39581509	     -5.96134608	     67.65520287	    128.77406878	     91.25445656	    121.16161416	     -2.85867813	     68.26858424	    125.61749956	     94.47262721
      4.13333330	    -15.66563424	     21.77556995	     10.06562810	      1.57287372	      0.79379426	      0.02795181	     93.03604380	    -27.99023277	     18.65054300	     36.12592740	      0.63051638	     -8.59531855	     14.75138565	     -7.49999987	     68.71686193	     22.97774995	    -16.69281090	     71.95671481	      1.25588159	     24.81825317	      1.48055399	     -7.49999987	    -45.52635964	    -17.75029225	    -22.44061077	     98.93047683	     -5.11325388	     69.13783553	    129.55411835	     89.32111392	    121.84522782	     -2.91324256	     68.33772166	    126.40961769	     92.32903251
      4.15000000	    -15.61906227	     21.70129077	     10.13306681	      1.56931536	      0.79518067	      0.02395747	     93.40689046	    -28.02830108	     18.84177804	     36.56339461	      0.63815162	     -8.75579762	     14.55072430	     -7.49999987	     69.10729762	     22.55087669	    -16.85747328	     72.43576045	      1.26424252	     24.56490687	      1.61764581	     -7.49999987	    -45.76040485	    -17.25978570	    -22.74994905	     98.95541760	     -5.59566876	     69.37501828	    129.37990448	     89.31601477	    122.14324465	     -2.92932671	     68.20734906	    126.19988418	     92.29407036
      4.16666670	    -15.77405494	     21.74362636	     10.31236940	      1.56963715	      0.79739503	      0.02368124	     93.91533596	    -28.20097992	     19.04385814	     36.76179820	      0.64161442	     -8.82472701	     14.34909270	     -7.49999987	     69.56671272	     22.35870420	    -17.04895471	     72.67290578	      1.26838148	     24.28694307	      1.88053952	     -7.49999987	    -45.86487043	    -16.99807360	    -22.70837657	     99.16646074	     -5.93827007	     70.30006531	    129.71332688	     87.33257939	    122.06997281	     -2.52435915	     68.44174347	    126.75924501	     90.25097423
